<svg width="24" height="24" viewBox="0 0 24 24" fill="none" xmlns="http://www.w3.org/2000/svg">
<path d="M0 0H23.9926V24H0V0Z" fill="#19AA1E"/>
<path fill-rule="evenodd" clip-rule="evenodd" d="M0 0H23.9926V7.87477L0 4.12523V0Z" fill="#FFB919"/>
<path fill-rule="evenodd" clip-rule="evenodd" d="M0 21.3701L23.9926 17.6206V23.9926H0V21.3701Z" fill="#82D714"/>
<path fill-rule="evenodd" clip-rule="evenodd" d="M0 3.65381L8.37778 4.96504C9.42222 4.30206 10.6593 3.9411 12 3.9411C13.8519 3.9411 15.5185 4.63355 16.7333 5.85639C16.8889 6.01108 17.0296 6.17315 17.163 6.33521L23.9926 7.40335V8.35362L17.8519 7.39598C18.3111 8.27259 18.5556 9.25234 18.5556 10.2394C18.5556 11.5286 18.2667 12.8103 17.6741 14.0921L17.6593 14.1289L17.4074 14.6667H16.8074C15.5778 14.6667 14.7556 15.035 14.2222 15.6906C13.8 16.2063 13.563 16.8987 13.4815 17.6501V17.6722L13.4667 17.7901L13.4593 17.8417L13.4519 17.9448C13.4222 18.2836 13.4 18.5636 13.3926 18.7993L24 17.1418V18.0921L0 21.849V20.8987L10.6222 19.2413L10.6148 19.0277V18.9687V18.9393V18.8951C10.6 18.5636 10.5778 18.2321 10.5407 17.9006L10.5333 17.8269L10.5185 17.6943C10.4444 16.9356 10.2 16.2358 9.78519 15.7127C9.25926 15.0571 8.44444 14.6814 7.22222 14.6741H6.59259L6.34074 14.1363C5.73333 12.8324 5.43704 11.5433 5.43704 10.2394C5.43704 8.60408 6.0963 7.02766 7.26667 5.85639C7.3037 5.81955 7.33333 5.79009 7.37037 5.75326L0 4.59672V3.65381Z" fill="white"/>
<path fill-rule="evenodd" clip-rule="evenodd" d="M12 4.87671C15.3481 4.87671 17.6222 7.45498 17.6222 10.2395C17.6222 11.3592 17.3778 12.5158 16.8074 13.7386C13.5111 13.7386 12.6963 16.1032 12.5407 17.5839L12.5333 17.6797C12.4815 18.21 12.4518 18.6373 12.4444 18.9541L11.5481 19.094V19.0646C11.5481 18.7257 11.5111 18.2542 11.4518 17.6502V17.6207C11.3111 16.1401 10.5111 13.7312 7.18518 13.7312C6.61481 12.5158 6.37036 11.3518 6.37036 10.2321C6.37036 7.45498 8.64444 4.87671 12 4.87671Z" fill="#0073FA"/>
</svg>
