<svg width="24" height="24" viewBox="0 0 24 24" fill="none" xmlns="http://www.w3.org/2000/svg">
<path fill-rule="evenodd" clip-rule="evenodd" d="M5.10896 18.829C5.04813 19.0111 5.03897 19.2126 5.09398 19.4116C5.24116 19.9439 5.792 20.2561 6.32431 20.1089L9.16916 19.3223C10.1931 19.7588 11.3195 20 12.5 20C17.1944 20 21 16.1944 21 11.5C21 6.80558 17.1944 3 12.5 3C7.80558 3 4 6.80558 4 11.5C4 13.2758 4.54559 14.9267 5.47795 16.2909L5.11497 18.7793C5.11254 18.7959 5.11054 18.8125 5.10896 18.829ZM12.5 5C8.91015 5 6 7.91015 6 11.5C6 12.9424 6.46868 14.2726 7.26246 15.3503C7.45936 15.5643 7.5617 15.862 7.51645 16.1722L7.28357 17.7686L8.99453 17.2955C9.27366 17.2184 9.55787 17.2675 9.78632 17.4084C10.6111 17.788 11.5295 18 12.5 18C16.0899 18 19 15.0899 19 11.5C19 7.91015 16.0899 5 12.5 5Z" fill="#CCCCCC"/>
</svg>
