<svg width="24" height="24" viewBox="0 0 24 24" fill="none" xmlns="http://www.w3.org/2000/svg">
<path fill-rule="evenodd" clip-rule="evenodd" d="M6.98356 3.09206C7.46051 2.87642 8.02337 3.0508 8.29486 3.49832L10.6651 7.40545C10.8418 7.69679 10.8639 8.05644 10.724 8.36716L9.75042 10.5296C9.76354 10.549 9.77751 10.5693 9.79236 10.5906C10.0449 10.9522 10.5416 11.5734 11.4841 12.5159C12.4266 13.4584 13.0478 13.9551 13.4094 14.2076C13.4307 14.2225 13.451 14.2365 13.4704 14.2496L15.6328 13.276C15.9436 13.1361 16.3032 13.1582 16.5945 13.3349L20.5017 15.7051C20.9492 15.9766 21.1236 16.5395 20.9079 17.0164L19.9649 16.59C20.9079 17.0164 20.9079 17.0164 20.9079 17.0164L20.9055 17.0219L20.9018 17.0299L20.8907 17.0536C20.8816 17.0726 20.8693 17.0982 20.8536 17.1298C20.8222 17.1928 20.7772 17.2799 20.7184 17.3865C20.6008 17.5992 20.4265 17.8917 20.1919 18.2271C19.7253 18.8942 19.0051 19.7524 17.998 20.4858C17.2223 21.0507 16.2684 21.0735 15.4299 20.9159C14.5752 20.7552 13.6635 20.3769 12.7835 19.9037C11.0181 18.9543 9.17705 17.5118 7.83262 16.1674C6.48819 14.8229 5.04571 12.9819 4.09633 11.2165C3.62315 10.3365 3.24484 9.42484 3.08413 8.57012C2.92646 7.73162 2.94931 6.7777 3.51418 6.002C4.24758 4.99487 5.10583 4.2747 5.77286 3.80812C6.10825 3.57352 6.40075 3.39923 6.61355 3.28165C6.72011 3.22276 6.80718 3.17783 6.87023 3.14643C6.90178 3.13072 6.92736 3.11837 6.94642 3.10933L6.97007 3.09824L6.97812 3.09454L6.98117 3.09314L6.98356 3.09206C6.98356 3.09206 6.98356 3.09206 7.40996 4.03513L6.98356 3.09206ZM7.05197 5.44049C7.02165 5.46107 6.99076 5.48235 6.95933 5.50433C6.4206 5.88117 5.7493 6.44906 5.18751 7.22052C5.10479 7.33411 5.00919 7.60652 5.11846 8.1876C5.22467 8.75248 5.49868 9.45365 5.91944 10.2361C6.75795 11.7954 8.06987 13.4772 9.29632 14.7037C10.5228 15.9301 12.2046 17.2421 13.7639 18.0806C14.5463 18.5013 15.2475 18.7753 15.8124 18.8815C16.3935 18.9908 16.6659 18.8952 16.7795 18.8125C17.5509 18.2507 18.1188 17.5794 18.4957 17.0407C18.5177 17.0092 18.5389 16.9783 18.5595 16.948L15.9863 15.387L13.8477 16.3498C13.6223 16.4513 13.368 16.4687 13.1308 16.399L13.4228 15.406C13.1308 16.399 13.1291 16.3985 13.1291 16.3985L13.1274 16.398L13.124 16.3969L13.1169 16.3948L13.1023 16.3901C13.0922 16.3869 13.0817 16.3833 13.0706 16.3794C13.0484 16.3716 13.024 16.3624 12.9973 16.3515C12.9439 16.3298 12.8809 16.3012 12.8073 16.2635C12.6607 16.1884 12.4688 16.0755 12.2243 15.9048C11.7369 15.5644 11.0227 14.9819 10.0204 13.9796C9.01808 12.9773 8.43559 12.2631 8.09522 11.7757C7.92447 11.5312 7.81156 11.3393 7.73646 11.1927C7.6988 11.1191 7.67022 11.0561 7.64848 11.0027C7.63759 10.976 7.62837 10.9516 7.62056 10.9294C7.61665 10.9183 7.6131 10.9078 7.60985 10.8977L7.60522 10.8831L7.60307 10.876L7.60204 10.8726L7.60153 10.8709C7.60153 10.8709 7.60103 10.8692 8.59398 10.5772L7.60103 10.8692C7.53128 10.632 7.54873 10.3777 7.65022 10.1523L8.61301 8.01372L7.05197 5.44049Z" fill="#CCCCCC"/>
</svg>
