<svg width="24" height="24" viewBox="0 0 24 24" fill="none" xmlns="http://www.w3.org/2000/svg">
<g clip-path="url(#clip0_12_191)">
<path d="M8.29956 17.7833C8.98355 18.6681 9.60611 19.6001 10.1627 20.5726C10.638 21.4872 10.8361 22.1073 11.1834 23.2093C11.3964 23.8182 11.5889 23.9999 12.0027 23.9999C12.4537 23.9999 12.6583 23.6908 12.8164 23.2127C13.1447 22.172 13.4023 21.3777 13.8087 20.6273C14.6061 19.1784 15.597 17.8909 16.5707 16.6535C16.8343 16.3032 18.5385 14.263 19.3057 12.6531C19.3057 12.6531 20.2486 10.8847 20.2486 8.41494C20.2486 6.10471 19.3187 4.50244 19.3187 4.50244L16.6413 5.23022L15.0154 9.57692L14.6131 10.1763L14.5327 10.2849L14.4257 10.4208L14.2379 10.6379L13.9695 10.9102L12.5216 12.1075L8.90174 14.229L8.29956 17.7833Z" fill="#34A853"/>
<path d="M4.56396 12.356C5.44745 14.4042 7.15113 16.2048 8.3038 17.7849L14.4262 10.4238C14.4262 10.4238 13.5636 11.5687 11.999 11.5687C10.2562 11.5687 8.8483 10.1562 8.8483 8.375C8.8483 7.15356 9.57228 6.31445 9.57228 6.31445L5.41626 7.44477L4.56396 12.356Z" fill="#FBBC04"/>
<path d="M14.4949 0.378662C16.5283 1.0441 18.2687 2.44111 19.3214 4.50113L14.4284 10.4195C14.4284 10.4195 15.1524 9.56521 15.1524 8.35136C15.1524 6.52871 13.6403 5.16709 12.0068 5.16709C10.4621 5.16709 9.57495 6.31017 9.57495 6.31017V2.58168L14.4949 0.378662Z" fill="#4285F4"/>
<path d="M5.68481 2.99359C6.89929 1.51874 9.0363 0 11.9825 0C13.4119 0 14.4888 0.380895 14.4888 0.380895L9.56926 6.31332H6.08373L5.68481 2.99359Z" fill="#1A73E8"/>
<path d="M4.56401 12.3559C4.56401 12.3559 3.75122 10.7403 3.75122 8.3999C3.75122 6.18786 4.59842 4.25427 5.68555 2.99365L9.57277 6.31391L4.56401 12.3559Z" fill="#EA4335"/>
</g>
<defs>
<clipPath id="clip0_12_191">
<rect width="24" height="24" fill="white"/>
</clipPath>
</defs>
</svg>
