<svg width="24" height="24" viewBox="0 0 24 24" fill="none" xmlns="http://www.w3.org/2000/svg">
<path fill-rule="evenodd" clip-rule="evenodd" d="M15 9C15 10.6569 13.6569 12 12 12C10.3431 12 9 10.6569 9 9C9 7.34315 10.3431 6 12 6C13.6569 6 15 7.34315 15 9ZM13 9C13 9.55228 12.5523 10 12 10C11.4477 10 11 9.55228 11 9C11 8.44772 11.4477 8 12 8C12.5523 8 13 8.44772 13 9Z" fill="#CCCCCC"/>
<path fill-rule="evenodd" clip-rule="evenodd" d="M19 9C19 12.3471 16.0017 16.6446 13.25 20.3338C12.9702 20.709 12.6929 21.0778 12.4217 21.4386C12.2793 21.628 12.1386 21.8152 12 22C11.8616 21.8154 11.721 21.6285 11.5789 21.4393C11.3076 21.0784 11.0298 20.709 10.75 20.3338C7.99828 16.6446 5 12.3471 5 9C5 5.13401 8.13401 2 12 2C15.866 2 19 5.13401 19 9ZM17 9C17 10.3448 16.2644 12.188 14.915 14.4125C14.0525 15.8344 13.0317 17.2687 12 18.6625C10.9683 17.2687 9.94752 15.8344 9.08499 14.4125C7.73562 12.188 7 10.3448 7 9C7 6.23858 9.23858 4 12 4C14.7614 4 17 6.23858 17 9Z" fill="#CCCCCC"/>
</svg>
