<svg width="131" height="55" viewBox="0 0 131 55" fill="none" xmlns="http://www.w3.org/2000/svg">
<path d="M15.7341 10.3218H10.2801V10.4244V40.0254V40.0438L15.7341 35.4604V10.3218Z" fill="#FFDC83"/>
<path d="M15.7341 44.6125V35.3242L10.2801 39.9039V44.6125H15.7341Z" fill="url(#paint0_linear_0_1159)"/>
<path d="M19.826 10.4246V15.7412H33.7784L33.8817 10.4246H19.9293H19.826Z" fill="#FFDC83"/>
<path d="M30.7359 22.8284H19.8721V28.2477H24.3261L30.7802 22.8284H30.7359Z" fill="#FFDC83"/>
<path d="M24.1836 28.2477H24.3501H24.4829H28.3207V39.0864H19.826V44.403H33.7784V22.8284H30.6377L24.1836 28.2477Z" fill="url(#paint1_linear_0_1159)"/>
<path d="M4.93005 4.89866H39.1266V15.741V15.8143L44.0566 11.6747V0H0V48.675L4.93005 44.5353V4.89866Z" fill="#FFDC83"/>
<path d="M44.0566 54.9305V11.5349L39.1266 15.6746V50.0318H4.93005V44.6125V44.3956L0 48.5352V54.9305H44.0566Z" fill="url(#paint2_linear_0_1159)"/>
<path d="M78.2457 0.0178377V33.9162H79.4339C83.6111 33.9162 87.792 33.9455 91.973 33.9052C94.7332 33.8795 97.2905 33.2415 99.4603 31.3715C102.962 28.3502 103.973 19.9058 97.7886 16.8845C97.6226 16.8038 97.4676 16.6938 97.2351 16.5545C97.4049 16.4225 97.5119 16.3125 97.641 16.2392C100.674 14.5122 101.929 11.8318 101.697 8.46218C101.46 4.98985 99.7703 2.39383 96.5045 1.0225C95.283 0.512834 93.914 0.340514 92.604 0.0508475C92.235 -0.0298191 91.8364 0.0141674 91.4527 0.0141674C87.0725 0.0178341 82.7034 0.0178377 78.2457 0.0178377ZM83.3602 19.0258C86.5153 19.0258 89.6408 18.8499 92.7295 19.0772C95.4122 19.2752 97.0617 21.4055 97.0838 24.0712C97.106 26.8065 95.4971 28.9332 92.7442 29.1458C89.6556 29.3842 86.5374 29.2008 83.3602 29.2008V19.0258ZM83.3713 14.2518V4.62317C86.2754 4.62317 89.1094 4.50585 91.9287 4.65618C94.7553 4.80285 96.4971 6.65451 96.5525 9.21751C96.6189 12.0848 95.1686 13.9732 92.2424 14.2005C89.3419 14.4315 86.4082 14.2518 83.3713 14.2518Z" fill="url(#paint3_linear_0_1159)"/>
<path d="M71.0862 0.0437012H49.3254V33.876C49.6612 33.8907 49.9786 33.9164 50.2886 33.9164C54.2444 33.92 58.2002 33.953 62.156 33.898C63.4291 33.8797 64.7391 33.755 65.968 33.4397C70.6618 32.2407 73.4257 28.354 73.2523 23.3564C73.0493 17.4934 69.2337 13.6434 63.3295 13.4234C60.7944 13.3317 58.2482 13.3904 55.7094 13.383C55.3293 13.3794 54.9492 13.383 54.4806 13.383V4.64536H71.0862V0.0437012ZM54.4474 18.0434C57.5655 18.0434 60.5877 17.8784 63.5841 18.091C66.3739 18.289 68.1304 20.61 68.1488 23.5727C68.1673 26.5904 66.5104 28.86 63.7022 29.1314C60.9973 29.3954 58.2556 29.2854 55.5286 29.3404C55.1854 29.3477 54.8422 29.3404 54.4474 29.3404V18.0434Z" fill="url(#paint4_linear_0_1159)"/>
<path d="M128.774 0H107.013V33.8323C107.349 33.847 107.666 33.8727 107.976 33.8727C111.932 33.8763 115.888 33.9093 119.844 33.8543C121.117 33.836 122.427 33.7113 123.656 33.396C128.35 32.197 131.113 28.3103 130.94 23.3127C130.737 17.4497 126.921 13.5997 121.017 13.3797C118.482 13.288 115.936 13.3467 113.397 13.3393C113.017 13.3357 112.637 13.3393 112.168 13.3393V4.60166H128.774V0ZM112.135 17.9997C115.253 17.9997 118.275 17.8347 121.272 18.0473C124.062 18.2453 125.818 20.5663 125.837 23.529C125.855 26.5467 124.198 28.8163 121.39 29.0877C118.685 29.3517 115.943 29.2417 113.216 29.2967C112.873 29.304 112.53 29.2967 112.135 29.2967V17.9997Z" fill="url(#paint5_linear_0_1159)"/>
<path d="M93.8145 49.2245C92.9363 51.0138 92.0691 52.7775 91.1392 54.6732C92.368 54.6732 93.4492 54.7062 94.5267 54.6475C94.7555 54.6365 95.0507 54.3431 95.1725 54.1085C95.6559 53.1735 96.084 52.2092 96.5305 51.2522C97.2168 49.7818 97.2169 49.7818 99.0066 49.9431V54.6181H102.302V41.2385C101.365 41.2385 100.446 41.2385 99.5269 41.2385C98.1099 41.2422 96.6965 41.2018 95.2832 41.2642C93.3533 41.3485 91.8772 42.6025 91.4233 44.4505C90.9768 46.2618 91.7038 47.9558 93.3533 48.9458C93.4898 49.0302 93.6263 49.1108 93.8145 49.2245ZM99.0656 47.2115C97.9327 47.2115 96.9364 47.2775 95.9548 47.1931C95.0729 47.1161 94.6153 46.5148 94.5858 45.6311C94.5562 44.7365 95.0766 44.0105 95.9364 43.9445C96.9438 43.8675 97.9623 43.9262 99.0656 43.9262V44.8465V47.2115Z" fill="url(#paint6_linear_0_1159)"/>
<path d="M113.952 46.2769H109.571V41.3049H106.261V54.6149H109.527V49.3459H113.922V54.5966H117.288V41.3013H113.952V46.2769Z" fill="url(#paint7_linear_0_1159)"/>
<path d="M59.8357 54.6148C59.8357 51.4761 59.8763 48.4438 59.821 45.4151C59.7841 43.3251 58.6622 41.9098 56.5994 41.4221C53.9684 40.7951 51.3742 40.6741 49.2967 42.8081C49.9793 43.5378 50.6251 44.2308 51.3115 44.9678C52.1381 44.0438 53.1233 43.8312 54.2378 43.8935C55.9832 43.9888 56.6696 44.8101 56.3928 46.7351C55.7876 46.7351 55.1566 46.7278 54.5256 46.7388C53.7543 46.7535 52.9794 46.7425 52.2156 46.8195C50.1675 47.0211 48.7431 48.4475 48.662 50.3248C48.5549 52.7301 49.7026 54.2518 51.913 54.6918C53.5661 55.0218 55.0902 54.8238 56.5035 53.6248C56.5515 54.0208 56.5847 54.2885 56.6253 54.6185H59.8357V54.6148ZM54.7987 48.9168C55.9943 48.8912 56.1788 48.9498 56.3153 49.0965C56.5478 49.3458 56.5293 49.7198 56.4887 50.0351C56.2747 51.7585 55.0644 52.4808 53.1086 52.0188C52.3152 51.8318 51.8724 51.3845 51.8724 50.5595C51.8724 50.3982 51.865 49.9068 52.2082 49.5218C52.4333 49.2725 52.6953 49.1918 53.0791 49.0818C53.389 48.9975 53.7101 48.9388 54.7987 48.9168Z" fill="url(#paint8_linear_0_1159)"/>
<path d="M62.0355 51.8432V54.6298C62.9026 54.6298 63.7366 54.7142 64.5484 54.6115C65.8326 54.4502 66.8142 53.7022 67.15 52.4775C67.5411 51.0438 67.7662 49.5552 67.9102 48.0738C68.0319 46.8162 67.936 45.5328 67.936 44.2018H71.2497V49.4159V54.6188H74.4749V41.3088H64.6923C64.6923 42.8745 64.7182 44.4292 64.685 45.9839C64.6591 47.1645 64.6222 48.3489 64.482 49.5149C64.279 51.1722 63.7514 51.6342 62.0355 51.8432Z" fill="url(#paint9_linear_0_1159)"/>
<path d="M78.449 41.3008V54.6731C79.0247 54.6731 79.5893 54.6731 80.1576 54.6731C81.8624 54.6695 83.5673 54.6988 85.2684 54.6584C87.512 54.6071 89.2464 52.9901 89.3866 50.8781C89.5564 48.3335 88.2611 46.5515 85.8588 46.2178C84.5673 46.0381 83.2425 46.0748 81.8034 46.0051V43.6328V41.2935H78.449V41.3008ZM81.7111 48.7221C82.7517 48.7221 83.6817 48.6818 84.6116 48.7331C85.5083 48.7845 86.0766 49.4261 86.1135 50.3024C86.1541 51.2118 85.678 51.9194 84.7887 52.0038C83.7813 52.0991 82.7591 52.0258 81.7148 52.0258V48.7221H81.7111Z" fill="url(#paint10_linear_0_1159)"/>
<path d="M128.697 45.0303C129.435 44.286 130.133 43.5893 130.915 42.801C129.487 41.294 127.653 40.854 125.631 41.129C122.812 41.5067 121.118 43.2593 120.645 46.068C120.321 48.0077 120.428 49.8997 121.243 51.6963C122.871 55.2713 128.387 56.0157 130.911 52.9833C130.203 52.3013 129.494 51.6157 128.838 50.985C128.17 51.2673 127.531 51.6927 126.849 51.788C125.406 51.9897 124.417 51.3737 124.144 49.9583C123.911 48.7593 123.823 47.4576 124.044 46.2733C124.487 43.9046 126.671 43.362 128.697 45.0303Z" fill="url(#paint11_linear_0_1159)"/>
<defs>
<linearGradient id="paint0_linear_0_1159" x1="10.2801" y1="39.9684" x2="15.7341" y2="39.9684" gradientUnits="userSpaceOnUse">
<stop stop-color="#404D6C"/>
<stop offset="1" stop-color="#2F384F"/>
</linearGradient>
<linearGradient id="paint1_linear_0_1159" x1="19.826" y1="33.6157" x2="33.7784" y2="33.6157" gradientUnits="userSpaceOnUse">
<stop stop-color="#404D6C"/>
<stop offset="1" stop-color="#2F384F"/>
</linearGradient>
<linearGradient id="paint2_linear_0_1159" x1="0" y1="33.2327" x2="44.0566" y2="33.2327" gradientUnits="userSpaceOnUse">
<stop stop-color="#404D6C"/>
<stop offset="1" stop-color="#2F384F"/>
</linearGradient>
<linearGradient id="paint3_linear_0_1159" x1="78.2457" y1="16.9643" x2="102.261" y2="16.9643" gradientUnits="userSpaceOnUse">
<stop stop-color="#404D6C"/>
<stop offset="1" stop-color="#2F384F"/>
</linearGradient>
<linearGradient id="paint4_linear_0_1159" x1="49.3254" y1="16.9866" x2="73.26" y2="16.9866" gradientUnits="userSpaceOnUse">
<stop stop-color="#404D6C"/>
<stop offset="1" stop-color="#2F384F"/>
</linearGradient>
<linearGradient id="paint5_linear_0_1159" x1="107.013" y1="16.9429" x2="130.948" y2="16.9429" gradientUnits="userSpaceOnUse">
<stop stop-color="#404D6C"/>
<stop offset="1" stop-color="#2F384F"/>
</linearGradient>
<linearGradient id="paint6_linear_0_1159" x1="91.1392" y1="47.9557" x2="102.302" y2="47.9557" gradientUnits="userSpaceOnUse">
<stop stop-color="#404D6C"/>
<stop offset="1" stop-color="#2F384F"/>
</linearGradient>
<linearGradient id="paint7_linear_0_1159" x1="106.261" y1="47.9581" x2="117.288" y2="47.9581" gradientUnits="userSpaceOnUse">
<stop stop-color="#404D6C"/>
<stop offset="1" stop-color="#2F384F"/>
</linearGradient>
<linearGradient id="paint8_linear_0_1159" x1="48.6551" y1="47.9285" x2="59.8501" y2="47.9285" gradientUnits="userSpaceOnUse">
<stop stop-color="#404D6C"/>
<stop offset="1" stop-color="#2F384F"/>
</linearGradient>
<linearGradient id="paint9_linear_0_1159" x1="62.0355" y1="47.9856" x2="74.4749" y2="47.9856" gradientUnits="userSpaceOnUse">
<stop stop-color="#404D6C"/>
<stop offset="1" stop-color="#2F384F"/>
</linearGradient>
<linearGradient id="paint10_linear_0_1159" x1="78.449" y1="47.9867" x2="89.4014" y2="47.9867" gradientUnits="userSpaceOnUse">
<stop stop-color="#404D6C"/>
<stop offset="1" stop-color="#2F384F"/>
</linearGradient>
<linearGradient id="paint11_linear_0_1159" x1="120.475" y1="47.9639" x2="130.915" y2="47.9639" gradientUnits="userSpaceOnUse">
<stop stop-color="#404D6C"/>
<stop offset="1" stop-color="#2F384F"/>
</linearGradient>
</defs>
</svg>
