<svg width="24" height="24" viewBox="0 0 24 24" fill="none" xmlns="http://www.w3.org/2000/svg">
<path d="M12 24C18.6274 24 24 18.6274 24 12C24 5.37258 18.6274 0 12 0C5.37258 0 0 5.37258 0 12C0 18.6274 5.37258 24 12 24Z" fill="#CE2457"/>
<path fill-rule="evenodd" clip-rule="evenodd" d="M11.4084 4.78282C7.68805 5.08706 4.76367 8.20283 4.76367 12.0016C4.76367 16.0019 8.00657 19.2448 12.0068 19.2448C16.0071 19.2448 19.25 16.0019 19.25 12.0016C19.25 8.20238 16.3249 5.08637 12.604 4.78271L12.4088 9.54023C13.5949 9.73245 14.5004 10.7613 14.5004 12.0016C14.5004 13.3788 13.384 14.4953 12.0068 14.4953C10.6296 14.4953 9.51316 13.3788 9.51316 12.0016C9.51316 10.7617 10.4181 9.7332 11.6035 9.54045L11.4084 4.78282Z" fill="white"/>
<path d="M11.999 4.27526C12.8624 4.27526 13.5624 3.5753 13.5624 2.71185C13.5624 1.8484 12.8624 1.14844 11.999 1.14844C11.1355 1.14844 10.4355 1.8484 10.4355 2.71185C10.4355 3.5753 11.1355 4.27526 11.999 4.27526Z" fill="white"/>
</svg>
