<svg width="24" height="24" viewBox="0 0 24 24" fill="none" xmlns="http://www.w3.org/2000/svg">
<path d="M11.9999 1C10.2206 1.00094 8.48138 1.52919 7.00207 2.51803C5.52275 3.50687 4.36967 4.91194 3.68847 6.55577C3.00727 8.19959 2.82852 10.0084 3.17478 11.7538C3.52105 13.4991 4.3768 15.1027 5.63394 16.362C7.26394 17.992 11.0999 20.35 11.3269 22.827C11.3609 23.197 11.6299 23.5 11.9999 23.5C12.3699 23.5 12.6399 23.197 12.6729 22.827C12.8999 20.35 16.7329 17.996 18.3619 16.367C19.6206 15.1082 20.4777 13.5046 20.8251 11.7587C21.1725 10.0129 20.9945 8.20326 20.3136 6.55857C19.6327 4.91388 18.4794 3.50799 16.9997 2.5186C15.5199 1.52921 13.78 1.00074 11.9999 1Z" fill="#FF4433"/>
<path d="M12 13.0789C11.5957 13.0789 11.1953 12.9993 10.8217 12.8445C10.4482 12.6898 10.1088 12.463 9.82284 12.1771C9.53693 11.8912 9.31013 11.5517 9.1554 11.1782C9.00066 10.8046 8.92102 10.4042 8.92102 9.9999C8.92102 9.59556 9.00066 9.19518 9.1554 8.82162C9.31013 8.44805 9.53693 8.10863 9.82284 7.82272C10.1088 7.53681 10.4482 7.31001 10.8217 7.15527C11.1953 7.00054 11.5957 6.9209 12 6.9209C12.8166 6.9209 13.5998 7.24529 14.1772 7.82272C14.7546 8.40014 15.079 9.1833 15.079 9.9999C15.079 10.8165 14.7546 11.5997 14.1772 12.1771C13.5998 12.7545 12.8166 13.0789 12 13.0789Z" fill="white"/>
</svg>
